<svg width="106" height="104" viewBox="0 0 106 104" fill="none" xmlns="http://www.w3.org/2000/svg">
<g clip-path="url(#clip0_29_120)">
<path d="M88.4023 0H17.5977C7.87874 0 0 7.91561 0 17.68V86.1536C0 95.918 7.87874 103.834 17.5977 103.834H88.4023C98.1213 103.834 106 95.918 106 86.1536V17.68C106 7.91561 98.1213 0 88.4023 0Z" fill="#001E36"/>
<path d="M23.8682 72.8146V27.1635C23.8682 26.8307 24.0106 26.6635 24.2951 26.6635L24.7451 26.6623L25.5145 26.654L26.5836 26.6327L30.1652 26.5566L34.0057 26.4851C35.3563 26.4618 36.6954 26.4493 38.0229 26.4493C41.6252 26.4493 44.6591 26.9019 47.1248 27.8067C49.349 28.5625 51.3775 29.8072 53.0625 31.45C54.4909 32.8741 55.5948 34.5926 56.298 36.4869C56.9631 38.3303 57.3002 40.2769 57.2938 42.2377C57.2938 46.0487 56.4164 49.192 54.6624 51.668C52.9468 54.0836 50.5539 55.931 47.789 56.9745L47.5517 57.0619C44.6645 58.1439 41.4671 58.5349 37.9604 58.5595L37.4155 58.5612L36.6068 58.557L36.1989 58.5512L35.7443 58.5404L35.4702 58.5295L35.3037 58.5208L34.8942 58.5058L34.3936 58.4954L33.64 58.49L33.4723 58.4896V72.743C33.4848 72.8304 33.4768 72.9195 33.4491 73.0032C33.4213 73.0869 33.3745 73.163 33.3124 73.2255C33.2503 73.2879 33.1745 73.3349 33.0912 73.3628C33.0078 73.3907 32.9192 73.3987 32.8322 73.3861H24.3663C24.0338 73.3861 23.8682 73.1964 23.8682 72.8146ZM33.4728 35.2364V50.1259C34.0403 50.1719 34.6093 50.1958 35.1787 50.1975H37.5256C39.1437 50.192 40.7523 49.95 42.301 49.479L42.6099 49.3821C44.0188 48.9617 45.2777 48.1432 46.2366 47.0242C47.1277 45.9684 47.5894 44.5137 47.6213 42.6595L47.6233 42.452C47.6606 41.07 47.3029 39.7064 46.5919 38.5228C45.8447 37.3782 44.7647 36.4926 43.4989 35.9865C41.8459 35.3411 40.0803 35.0374 38.3078 35.0938L37.4059 35.0963L36.837 35.1012L36.2942 35.1083L35.5282 35.1233L34.9692 35.1391L34.6789 35.1499L34.2909 35.1682L33.9605 35.1886L33.7721 35.2036L33.6094 35.2194L33.5378 35.2277L33.4728 35.2364ZM84.7875 47.4186C83.5471 46.7782 82.2313 46.2971 80.8713 45.9867L80.5566 45.9185C79.0604 45.5735 77.533 45.3836 75.9982 45.3515L75.6148 45.3469C74.7151 45.3224 73.8166 45.4308 72.9482 45.6685C72.3954 45.792 71.9039 46.1083 71.5611 46.5612C71.3294 46.9236 71.2061 47.3452 71.2059 47.7759C71.2188 48.1937 71.3688 48.5954 71.6323 48.9187C72.0097 49.3621 72.4634 49.7337 72.9718 50.0157L73.1259 50.0976C74.1397 50.6461 75.1843 51.135 76.2545 51.562C78.641 52.3646 80.9213 53.4562 83.0451 54.8126C84.4922 55.7301 85.6897 56.9945 86.5299 58.4921C87.2363 59.9099 87.59 61.4787 87.5609 63.0639C87.6035 65.1576 87.0079 67.2143 85.8541 68.9582C84.619 70.7283 82.9035 72.1044 80.9119 72.9227C78.8263 73.8437 76.2649 74.3192 73.2281 74.3504L72.9126 74.3521C71.0301 74.3712 69.1501 74.2057 67.2996 73.8579L66.9037 73.7805C65.3456 73.4934 63.829 73.0135 62.3884 72.3516C62.2436 72.2765 62.1213 72.1641 62.0338 72.026C61.9464 71.8878 61.897 71.7289 61.8907 71.5653V63.7786C61.8822 63.703 61.8942 63.6266 61.9256 63.5573C61.9569 63.4881 62.0064 63.4287 62.0687 63.3855C62.1298 63.3508 62.1999 63.3357 62.2697 63.3421C62.3396 63.3485 62.4058 63.3761 62.4596 63.4213C64.1608 64.4291 66.0081 65.1643 67.9348 65.6003C69.6331 66.028 71.3752 66.2559 73.1259 66.2792C74.7846 66.2792 76.0053 66.0645 76.7878 65.6361C77.1412 65.4736 77.4401 65.2116 77.6484 64.882C77.8566 64.5523 77.9653 64.1691 77.9613 63.7786C77.9613 63.1604 77.6056 62.5647 76.8947 61.9927C76.5965 61.7531 76.1688 61.4923 75.6123 61.2107L75.3461 61.0792L75.062 60.9448L74.913 60.8766L74.6008 60.7377C74.5466 60.7139 74.4923 60.6903 74.438 60.6669L74.0985 60.5238L73.9217 60.451L73.5548 60.3034L73.3644 60.2285L72.9698 60.0758L72.5569 59.9206C70.3241 59.1399 68.207 58.0584 66.2636 56.7058C64.8737 55.7346 63.7292 54.4501 62.9217 52.9551C62.2224 51.5474 61.8689 49.9918 61.8907 48.4187C61.8867 46.5284 62.4035 44.674 63.3838 43.0606C64.5018 41.2843 66.1067 39.8699 68.006 38.9888C70.0916 37.9417 72.6986 37.4175 75.8276 37.4167C77.6603 37.4019 79.4912 37.5334 81.3032 37.8098C82.6152 37.977 83.898 38.3256 85.115 38.8457C85.3109 38.9022 85.4687 39.0474 85.5415 39.2388C85.59 39.4131 85.6136 39.5932 85.6127 39.7746V46.9901C85.6231 47.1607 85.5415 47.3242 85.3995 47.4186C85.3044 47.4661 85.1997 47.4908 85.0935 47.4908C84.9873 47.4908 84.8826 47.4661 84.7875 47.4186Z" fill="#31A8FF"/>
</g>
<defs>
<clipPath id="clip0_29_120">
<rect width="106" height="104" fill="white"/>
</clipPath>
</defs>
</svg>
