<svg width="102" height="99" viewBox="0 0 102 99" fill="none" xmlns="http://www.w3.org/2000/svg">
<g clip-path="url(#clip0_28_102)">
<path d="M85.0664 0H16.9336C7.58143 0 0 7.53505 0 16.83V82.0116C0 91.3066 7.58143 98.8416 16.9336 98.8416H85.0664C94.4186 98.8416 102 91.3066 102 82.0116V16.83C102 7.53505 94.4186 0 85.0664 0Z" fill="#470137"/>
<path d="M53.6209 25.9934L40.8936 46.8717L54.5102 69.0418C54.5979 69.197 54.6222 69.3792 54.5788 69.5519C54.5576 69.6255 54.5122 69.6437 54.4425 69.6465L54.3652 69.6453L54.2712 69.6429C54.2202 69.6429 54.1632 69.6453 54.0998 69.6556H44.2823L44.0895 69.6524C43.5604 69.6386 43.1791 69.5633 42.9468 69.1776C42.0384 67.4188 41.1259 65.662 40.2095 63.9073C39.3897 62.3422 38.5476 60.7888 37.6834 59.2475L37.3017 58.5688C36.2681 56.7429 35.253 54.9067 34.2568 53.0604H34.1883C33.2683 54.8874 32.3217 56.701 31.3487 58.5007C30.3673 60.3144 29.3979 62.117 28.4405 63.9073C27.4824 65.699 26.5017 67.4787 25.4984 69.2458C25.337 69.6061 25.0689 69.6814 24.6955 69.6936L24.5402 69.696H15.1661L15.1255 69.6972L14.9916 69.7091C14.9171 69.7134 14.8725 69.6976 14.8581 69.5859C14.8324 69.4201 14.869 69.2507 14.9609 69.1099L28.1667 47.5517L15.3028 25.9261C15.1661 25.7455 15.1434 25.5982 15.2342 25.4842C15.2847 25.4261 15.3481 25.3805 15.4194 25.3509C15.4907 25.3213 15.568 25.3087 15.645 25.3139H25.2928C25.5032 25.3025 25.7135 25.3373 25.9088 25.4161C26.0721 25.5083 26.2128 25.6362 26.3192 25.7903C27.1404 27.604 28.0528 29.4177 29.0564 31.2305C30.0523 33.032 31.0673 34.8229 32.1013 36.6031C33.1194 38.3556 34.0667 40.1479 34.941 41.9756H35.0095C35.9054 40.1483 36.8292 38.3347 37.7806 36.5354C38.715 34.7672 39.6732 32.9872 40.6542 31.1965C41.6227 29.4287 42.5693 27.6493 43.4938 25.8584C43.5464 25.6905 43.6404 25.5384 43.7675 25.4161C43.9366 25.331 44.1265 25.2956 44.315 25.3139H53.2786C53.3611 25.2935 53.4479 25.3002 53.5261 25.3331C53.6044 25.3659 53.6697 25.4232 53.7124 25.4961C53.7551 25.5691 53.7728 25.6539 53.7628 25.7377C53.7529 25.8215 53.7158 25.8999 53.6572 25.961L53.6213 25.9942L53.6209 25.9934ZM73.73 70.5328L73.2583 70.5379C70.1088 70.5856 66.9882 69.9352 64.1233 68.6339C61.4545 67.4063 59.2236 65.4024 57.7256 62.8872C56.2151 60.394 55.4398 57.2869 55.4007 53.5673L55.3991 53.2644C55.3735 50.1431 56.1761 47.0703 57.726 44.3556C59.2772 41.6686 61.5385 39.4547 64.2652 37.9538L64.4998 37.8271C67.4642 36.1948 71.0454 35.3786 75.2425 35.3786L75.4258 35.3806L75.6354 35.3874L75.8705 35.3976L76.1318 35.4127L76.5709 35.4436L77.0682 35.4832L77.4319 35.5149V22.1174C77.4319 21.8006 77.569 21.6414 77.8423 21.6414H86.4641C86.5199 21.6335 86.5767 21.6385 86.6301 21.6562C86.6836 21.6739 86.7321 21.7037 86.772 21.7433C86.8118 21.7829 86.8418 21.8311 86.8596 21.8843C86.8774 21.9374 86.8825 21.9939 86.8745 22.0493V62.2413C86.8745 62.9161 86.9008 63.6431 86.9534 64.4209L87.0809 66.1851L87.1486 67.2056C87.1571 67.3469 87.1223 67.4874 87.049 67.6088C86.9757 67.7302 86.8673 67.8268 86.7378 67.8859C84.5136 68.8077 82.1969 69.4915 79.8269 69.9257C77.815 70.2948 75.7757 70.4978 73.73 70.5328ZM77.4319 62.1051V43.5394C77.0621 43.4399 76.6845 43.3717 76.3032 43.3355C75.837 43.2888 75.3688 43.2661 74.9003 43.2674C73.2399 43.251 71.599 43.6238 70.1106 44.3556C68.6609 45.0718 67.4231 46.1497 66.5183 47.484C65.6151 48.7971 65.1477 50.5118 65.117 52.628L65.1154 52.8565C65.0821 54.3388 65.3257 55.8145 65.8338 57.2085C66.2474 58.332 66.9013 59.353 67.7503 60.2011C68.5628 60.9813 69.5465 61.5632 70.6238 61.9011C71.7619 62.2674 72.9514 62.4512 74.1476 62.4456C74.7859 62.4456 75.3788 62.4227 75.9266 62.3771C76.3636 62.3445 76.7967 62.2729 77.2208 62.1633L77.4319 62.1051Z" fill="#FF61F6"/>
</g>
<defs>
<clipPath id="clip0_28_102">
<rect width="102" height="99" fill="white"/>
</clipPath>
</defs>
</svg>
