<svg width="141" height="59" viewBox="0 0 141 59" fill="none" xmlns="http://www.w3.org/2000/svg">
<g clip-path="url(#clip0_28_88)">
<path d="M84.2606 20.3299C81.1778 20.3299 78.8822 21.8311 78.8822 25.4443C78.8822 28.1665 80.3952 30.0567 84.0942 30.0567C87.2298 30.0567 89.3597 28.2238 89.3597 25.3312C89.3597 22.0534 87.454 20.3299 84.2606 20.3299ZM78.0973 45.8425C77.3675 46.7302 76.6405 47.6742 76.6405 48.787C76.6405 51.0088 79.4969 51.6774 83.4206 51.6774C86.6702 51.6774 91.0974 51.4513 91.0974 48.4543C91.0974 46.6728 88.9675 46.563 86.2764 46.3959L78.0973 45.8425ZM94.683 20.4976C95.6898 21.7759 96.7561 23.5552 96.7561 26.1113C96.7561 32.2801 91.8812 35.8922 84.8224 35.8922C83.0274 35.8922 81.4026 35.6704 80.3952 35.3929L78.5451 38.3374L84.0359 38.6707C93.7307 39.2836 99.444 39.5622 99.444 46.9509C99.444 53.3436 93.7863 56.9541 84.0359 56.9541C73.8943 56.9541 70.0278 54.3975 70.0278 50.0074C70.0278 47.5065 71.1487 46.1751 73.11 44.338C71.2605 43.5628 70.6447 42.1741 70.6447 40.6723C70.6447 39.4486 71.2605 38.338 72.2706 37.2809C73.2785 36.2265 74.3988 35.1695 75.7438 33.9468C72.9987 32.6128 70.9245 29.7229 70.9245 25.6093C70.9245 19.2192 75.1837 14.8303 83.755 14.8303C86.1652 14.8303 87.6225 15.0499 88.9114 15.3859H99.8389V20.1081L94.683 20.4976ZM109.697 10.3982C106.502 10.3982 104.653 8.56264 104.653 5.39358C104.653 2.22888 106.502 0.504227 109.697 0.504227C112.946 0.504227 114.796 2.22888 114.796 5.39358C114.796 8.56264 112.947 10.3982 109.697 10.3982ZM102.467 43.7971V39.4087L105.326 39.0209C106.111 38.9089 106.222 38.7428 106.222 37.9075V21.5678C106.222 20.9581 106.054 20.567 105.492 20.402L102.467 19.3449L103.083 14.8445H114.683V37.9075C114.683 38.798 114.737 38.9089 115.58 39.0214L118.438 39.4093V43.7971H102.467ZM140.596 41.6425C138.186 42.8089 134.656 43.8649 131.461 43.8649C124.793 43.8649 122.273 41.2 122.273 34.9165V20.3572C122.273 20.0239 122.273 19.8016 121.823 19.8016H117.901V14.8538C122.833 14.2966 124.793 11.8513 125.409 5.79347H130.733V13.6874C130.733 14.0753 130.733 14.243 131.182 14.243H139.082V19.8005H130.733V33.0826C130.733 36.3615 131.519 37.6387 134.543 37.6387C136.114 37.6387 137.737 37.2509 139.081 36.7504L140.596 41.642" fill="#2F2707"/>
<path d="M57.5727 27.0581L31.9525 1.64818C31.6017 1.30006 31.1851 1.02391 30.7266 0.835504C30.2681 0.647098 29.7767 0.550125 29.2804 0.550125C28.7842 0.550125 28.2927 0.647098 27.8342 0.835504C27.3758 1.02391 26.9592 1.30006 26.6083 1.64818L21.2883 6.9254L28.037 13.6186C28.8303 13.351 29.6833 13.3092 30.4993 13.4977C31.3154 13.6863 32.0619 14.0978 32.6542 14.6855C33.2498 15.277 33.6656 16.0227 33.8542 16.8375C34.0427 17.6522 33.9964 18.5031 33.7206 19.293L40.2236 25.7442C41.7972 25.2067 43.6131 25.5547 44.8695 26.8029C45.2872 27.217 45.6185 27.7086 45.8446 28.2497C46.0706 28.7908 46.187 29.3707 46.187 29.9564C46.187 30.5421 46.0706 31.1221 45.8446 31.6632C45.6185 32.2043 45.2872 32.6959 44.8695 33.1099C44.1346 33.8395 43.1675 34.2939 42.1329 34.3959C41.0982 34.4978 40.0599 34.2409 39.1947 33.669C38.3295 33.0971 37.6908 32.2454 37.3875 31.259C37.0841 30.2726 37.1348 29.2124 37.5309 28.2588L31.4657 22.243L31.4651 38.0747C31.9048 38.2903 32.3064 38.5752 32.6542 38.9181C33.0719 39.3323 33.4032 39.824 33.6293 40.3652C33.8553 40.9064 33.9716 41.4864 33.9716 42.0722C33.9716 42.658 33.8553 43.238 33.6293 43.7792C33.4032 44.3204 33.0719 44.8121 32.6542 45.2262C30.8973 46.9689 28.0497 46.9689 26.2955 45.2262C25.7714 44.7068 25.3848 44.067 25.1702 43.3636C24.9555 42.6603 24.9194 41.9152 25.065 41.1947C25.2107 40.4742 25.5335 39.8005 26.005 39.2336C26.4764 38.6667 27.0817 38.2241 27.7672 37.9452V21.966C27.2158 21.7427 26.7153 21.4116 26.2955 20.9925C24.9648 19.6743 24.6448 17.7377 25.3267 16.1168L18.6743 9.51758L1.1077 26.9401C0.75667 27.2882 0.478219 27.7015 0.288243 28.1564C0.0982677 28.6113 0.000488281 29.0989 0.000488281 29.5912C0.000488281 30.0836 0.0982677 30.5712 0.288243 31.026C0.478219 31.4809 0.75667 31.8943 1.1077 32.2424L26.7278 57.6528C27.4366 58.3556 28.3978 58.7504 29.4 58.7504C30.4021 58.7504 31.3633 58.3556 32.0721 57.6528L57.5727 32.361C58.2814 31.6576 58.6795 30.7039 58.6795 29.7095C58.6795 28.7151 58.2814 27.7614 57.5727 27.0581Z" fill="#DE4C36"/>
</g>
<defs>
<clipPath id="clip0_28_88">
<rect width="141" height="59" fill="white"/>
</clipPath>
</defs>
</svg>
