<svg width="98" height="138" viewBox="0 0 98 138" fill="none" xmlns="http://www.w3.org/2000/svg">
<g clip-path="url(#clip0_27_43)">
<path d="M48.9403 137.651L9.05817 126.595L0.17041 27.0518H97.8297L88.9328 126.58L48.9403 137.651Z" fill="#264DE4"/>
<path d="M81.3159 120.242L88.9185 35.1908H49V129.189L81.3159 120.242Z" fill="#2965F1"/>
<path d="M20.5452 72.1102L21.6408 84.3188H49V72.1102H20.5452ZM18.3433 47.3997L19.4546 59.6084H49V47.3997H18.3433ZM49 103.817L48.9464 103.831L35.3306 100.16L34.4601 90.4233H22.1871L23.8998 109.593L48.9438 116.535L49 116.519V103.817Z" fill="#EBEBEB"/>
<path d="M23.1538 0H37.961V6.18362H29.3462V12.3672H37.9618V18.5505H23.1538V0ZM40.9228 0H55.7304V5.37703H47.1152V6.45236H55.7304V18.8196H40.9232V13.1731H49.5384V12.0977H40.9224V0H40.9228ZM58.6922 0H73.4998V5.37703H64.8846V6.45236H73.4998V18.8196H58.6922V13.1731H67.3074V12.0977H58.6926V0H58.6922Z" fill="black"/>
<path d="M77.3768 72.1102L79.5837 47.3997H48.9579V59.6084H66.1852L65.0728 72.1102H48.9579V84.3188H64.0128L62.5933 100.152L48.9575 103.828V116.529L74.0214 109.593L74.2052 107.53L77.0785 75.3885L77.3768 72.1102Z" fill="white"/>
</g>
<defs>
<clipPath id="clip0_27_43">
<rect width="98" height="138" fill="white"/>
</clipPath>
</defs>
</svg>
