<svg width="113" height="113" viewBox="0 0 113 113" fill="none" xmlns="http://www.w3.org/2000/svg">
<g clip-path="url(#clip0_27_72)">
<path d="M56.4999 110.127C86.1174 110.127 110.127 86.1175 110.127 56.5C110.127 26.8825 86.1174 2.87267 56.4999 2.87267C26.8825 2.87267 2.87305 26.8825 2.87305 56.5C2.87305 86.1175 26.8825 110.127 56.4999 110.127Z" fill="white"/>
<path d="M56.5 0C25.2961 0 0 25.2961 0 56.5C0 87.7043 25.2961 113 56.5 113C87.7043 113 113 87.7043 113 56.5C113 25.2961 87.7043 0 56.5 0ZM56.5 5.74579C84.5306 5.74579 107.254 28.4694 107.254 56.5C107.254 84.5306 84.5306 107.254 56.5 107.254C28.4694 107.254 5.74579 84.5306 5.74579 56.5C5.74579 28.4694 28.4694 5.74579 56.5 5.74579Z" fill="#4000BF"/>
<path d="M57.1385 16.2795C79.3518 16.2795 97.359 34.2871 97.359 56.5C97.359 78.7129 79.3518 96.7201 57.138 96.7201C34.9251 96.7201 16.918 78.7129 16.918 56.5C16.918 51.0716 17.9937 45.8939 19.9434 41.1686C22.79 45.0455 27.3811 47.562 32.5592 47.562C41.1975 47.562 48.2004 40.5591 48.2004 31.9207C48.2004 26.7422 45.684 22.1515 41.8071 19.3049C46.5324 17.3552 51.7096 16.2795 57.1385 16.2795Z" fill="url(#paint0_linear_27_72)"/>
</g>
<defs>
<linearGradient id="paint0_linear_27_72" x1="57.1385" y1="96.7201" x2="57.1385" y2="16.2795" gradientUnits="userSpaceOnUse">
<stop stop-color="#7400E1"/>
<stop offset="1" stop-color="#4000BF"/>
</linearGradient>
<clipPath id="clip0_27_72">
<rect width="113" height="113" fill="white"/>
</clipPath>
</defs>
</svg>
