<svg width="111" height="119" viewBox="0 0 111 119" fill="none" xmlns="http://www.w3.org/2000/svg">
<g clip-path="url(#clip0_27_52)">
<path d="M110.546 67.0551C114.431 34.4552 92.9556 4.65076 62.6027 0.486691C32.2498 -3.67784 4.33811 19.3449 0.453972 51.8854C-3.43059 84.4258 18.0444 114.29 48.3973 118.513C78.8057 122.678 106.606 99.6551 110.546 67.0551Z" fill="#FF6C37"/>
<path d="M75.532 38.2027L52.1149 63.3075L45.5112 56.228C68.5398 31.5401 70.8149 33.6816 75.5315 38.2027H75.532Z" fill="white"/>
<path d="M52.1149 63.9021C51.9484 63.9021 51.8374 63.8426 51.7264 63.7236L45.0677 56.6445C45.0151 56.5908 44.9733 56.5262 44.9447 56.4546C44.9161 56.3831 44.9014 56.306 44.9014 56.2282C44.9014 56.1504 44.9161 56.0733 44.9447 56.0018C44.9733 55.9302 45.0151 55.8656 45.0677 55.8119C68.4844 30.7071 70.9259 33.0866 75.8646 37.8457C75.9756 37.9647 76.0311 38.0837 76.0311 38.2622C76.0311 38.4407 75.9756 38.5597 75.8646 38.6787L52.4479 63.7236C52.3924 63.8426 52.2259 63.9021 52.1149 63.9021ZM46.2887 56.228L52.1149 62.4745L74.6995 38.2622C70.5934 34.3361 67.8184 33.1461 46.2887 56.2284V56.228Z" fill="#FF6C37"/>
<path d="M58.829 70.5056L52.4478 63.6641L75.8644 38.5597C82.135 45.3418 72.7573 56.347 58.829 70.5056Z" fill="white"/>
<path d="M58.8289 71.1006C58.6624 71.1006 58.5514 71.0411 58.4409 70.9221L52.0592 64.0806C51.9482 63.9616 51.9482 63.8426 51.9482 63.6641C51.9482 63.486 52.0037 63.3666 52.1147 63.248L75.5318 38.1432C75.5819 38.0868 75.6422 38.0419 75.709 38.0112C75.7758 37.9805 75.8477 37.9646 75.9203 37.9646C75.993 37.9646 76.0649 37.9805 76.1317 38.0112C76.1985 38.0419 76.2587 38.0868 76.3088 38.1432C77.0173 38.8461 77.5771 39.7036 77.9504 40.658C78.3237 41.6123 78.5018 42.6414 78.4729 43.6758C78.3619 50.2794 71.3706 58.667 59.2734 70.9221C59.1069 71.0411 58.9404 71.1006 58.8294 71.1006H58.8289ZM53.2247 63.6641C56.7759 67.5311 58.2744 69.0776 58.8289 69.6726C68.1512 60.1545 77.196 50.3984 77.2519 43.6758C77.3074 42.1292 76.7524 40.5823 75.8089 39.3927L53.2247 63.6641Z" fill="#FF6C37"/>
<path d="M45.6226 56.4065L50.3393 61.463C50.4503 61.582 50.4503 61.701 50.3393 61.82C50.2838 61.8795 50.2838 61.8795 50.2283 61.8795L40.462 64.1401C39.9625 64.1996 39.5185 63.8426 39.4075 63.3075C39.352 63.01 39.463 62.7125 39.6295 62.534L45.2896 56.466C45.4006 56.347 45.5671 56.2875 45.6226 56.4065Z" fill="white"/>
<path d="M40.2956 64.7351C39.4631 64.7351 38.853 64.0211 38.853 63.129C38.853 62.7125 39.0195 62.296 39.297 61.9985L44.9567 55.9305C45.2897 55.633 45.7337 55.633 46.0667 55.9305L50.7834 60.987C51.1164 61.2845 51.1164 61.82 50.7834 62.177C50.6724 62.296 50.5614 62.3555 50.3949 62.415L40.6286 64.6756C40.5176 64.6756 40.4066 64.7351 40.2956 64.7351ZM45.4562 57.061L40.0181 62.891C39.9071 63.01 39.8516 63.1885 39.9626 63.367C40.0181 63.5455 40.1846 63.6046 40.3511 63.5455L49.5069 61.4035L45.4562 57.061Z" fill="#FF6C37"/>
<path d="M87.9059 24.2825C84.3548 20.594 78.6391 20.713 75.199 24.58C71.7584 28.4466 71.8694 34.5146 75.4765 38.2027C76.9001 39.6775 78.739 40.6056 80.7063 40.8424C82.6736 41.0792 84.6587 40.6113 86.3519 39.5117L80.0258 32.7296L87.9055 24.2825H87.9059Z" fill="white"/>
<path d="M81.6912 41.4748C76.4196 41.4748 72.147 36.8942 72.147 31.2426C72.147 25.591 76.4196 21.0105 81.6912 21.0105C84.1324 21.0105 86.5189 22.022 88.2949 23.866C88.4054 23.985 88.4609 24.104 88.4609 24.2825C88.4609 24.461 88.4054 24.58 88.2944 24.699L80.8032 32.7297L86.6854 39.0357C86.9074 39.2737 86.9074 39.6307 86.6854 39.8687L86.5744 39.9877C85.1314 40.9393 83.4113 41.4752 81.6912 41.4752V41.4748ZM81.6912 22.26C77.0301 22.26 73.2565 26.305 73.312 31.3021C73.312 36.2992 77.0856 40.3447 81.7467 40.2852C83.0228 40.2852 84.2993 39.9877 85.4644 39.3332L79.6382 33.1462C79.5272 33.0272 79.4717 32.9082 79.4717 32.7297C79.4717 32.5516 79.5272 32.4322 79.6382 32.3136L87.0739 24.3415C85.5754 22.9735 83.6888 22.26 81.6912 22.26Z" fill="#FF6C37"/>
<path d="M88.0726 24.461L87.9616 24.342L80.0269 32.7297L86.2971 39.4522C86.9076 39.0357 87.5176 38.5597 88.0171 38.0242C88.8578 37.1414 89.5267 36.0885 89.9851 34.9266C90.4434 33.7646 90.6821 32.5166 90.6872 31.255C90.6924 29.9935 90.4639 28.7433 90.0151 27.5771C89.5663 26.4108 88.9061 25.3517 88.0726 24.461Z" fill="white"/>
<path d="M86.3524 40.1067C86.1859 40.1067 86.0749 40.0472 85.9639 39.9282L79.6378 33.1461C79.5272 33.0271 79.4717 32.9082 79.4717 32.7297C79.4717 32.5516 79.5272 32.4321 79.6382 32.3136L87.5174 23.866C87.5675 23.8096 87.6278 23.7647 87.6946 23.734C87.7614 23.7033 87.8333 23.6874 87.906 23.6874C87.9786 23.6874 88.0505 23.7033 88.1173 23.734C88.1841 23.7647 88.2444 23.8096 88.2944 23.866L88.4609 23.985C92.179 27.9706 92.179 34.3956 88.5164 38.4407C87.9614 39.0357 87.3514 39.5712 86.6854 39.9877C86.5189 40.0472 86.4079 40.1067 86.3524 40.1067ZM80.8032 32.7297L86.4079 38.7382C86.8519 38.4407 87.2959 38.0242 87.6285 37.6677C90.7915 34.2766 90.958 28.7441 87.906 25.1745L80.8037 32.7297H80.8032Z" fill="#FF6C37"/>
<path d="M76.4753 39.2737C75.8347 38.5881 74.9666 38.203 74.0614 38.203C73.1563 38.203 72.2881 38.5881 71.6476 39.2737L50.728 61.701L54.2237 65.4491L76.3643 44.6278C77.8073 43.3188 77.9178 40.9988 76.6973 39.4522C76.5863 39.3927 76.5308 39.3332 76.4753 39.2737Z" fill="white"/>
<path d="M54.1679 66.0441C54.0014 66.0441 53.8904 65.9846 53.7794 65.8656L50.2838 62.1175C50.2311 62.0638 50.1892 61.9992 50.1606 61.9276C50.132 61.856 50.1172 61.7789 50.1172 61.701C50.1172 61.6231 50.132 61.546 50.1606 61.4744C50.1892 61.4029 50.2311 61.3382 50.2838 61.2845L71.2033 38.8572C71.5706 38.4613 72.0073 38.1471 72.4882 37.9327C72.9691 37.7183 73.4848 37.608 74.0057 37.608C74.5265 37.608 75.0422 37.7183 75.5231 37.9327C76.0041 38.1471 76.4407 38.4613 76.808 38.8572C77.1773 39.251 77.4704 39.7191 77.6703 40.2347C77.8703 40.7502 77.9733 41.3031 77.9733 41.8615C77.9733 42.4199 77.8703 42.9728 77.6703 43.4883C77.4704 44.0039 77.1773 44.472 76.808 44.8658L76.6415 45.0443L54.5009 65.8656C54.4454 65.9846 54.3344 66.0441 54.1679 66.0441ZM51.5043 61.701L54.2234 64.6161L75.9755 44.1518C77.1965 43.0808 77.3075 41.1178 76.3085 39.8092C75.3099 38.5002 73.4784 38.3812 72.2578 39.4522C72.2023 39.5117 72.1468 39.5712 72.0358 39.6307L51.5043 61.7015V61.701Z" fill="#FF6C37"/>
<path d="M34.6907 87.2219C34.4692 87.3409 34.3582 87.5789 34.4132 87.8169L35.3567 92.1C35.5787 92.695 35.2457 93.409 34.6352 93.5875C34.1917 93.766 33.6922 93.5875 33.4147 93.2305L27.3105 86.7459L47.2316 65.3896L54.1127 65.5086L58.7738 70.5056C57.6638 71.5167 50.9496 78.4772 34.6907 87.2219Z" fill="white"/>
<path d="M34.2474 94.182C33.8034 94.182 33.3594 94.004 33.0819 93.647L27.0333 87.1624C26.9227 87.0434 26.8672 86.9244 26.8672 86.7464C26.8672 86.5679 26.9227 86.4489 27.0337 86.3299L46.9543 64.9731C47.0653 64.8541 47.2318 64.7946 47.3428 64.7946L54.2239 64.9136C54.39 64.9136 54.5014 64.9731 54.612 65.0921L59.2731 70.0891C59.3841 70.2081 59.4396 70.3866 59.4396 70.5651C59.4396 70.7436 59.3841 70.8626 59.2176 70.9816L58.8291 71.3382C52.9474 76.8707 44.9567 82.4033 35.024 87.6979L35.9675 91.9219C36.134 92.695 35.801 93.528 35.135 93.944C34.802 94.123 34.5245 94.1825 34.2474 94.1825V94.182ZM28.1433 86.7464L33.8589 92.814C34.0254 93.1115 34.3584 93.2305 34.6355 93.052C34.913 92.8735 35.024 92.5165 34.8575 92.219L33.9144 87.9359C33.8034 87.4004 34.0254 86.9244 34.4694 86.6868C44.2907 81.3923 52.2259 75.9192 58.0525 70.5056L53.9464 66.1036L47.5648 65.9846L28.1433 86.7464Z" fill="#FF6C37"/>
<path d="M22.5943 91.8624L27.366 86.7463L34.4692 94.3605L23.1489 93.5279C22.6494 93.4684 22.3164 92.9924 22.3723 92.4569C22.3723 92.2189 22.4278 91.9809 22.5939 91.8619L22.5943 91.8624Z" fill="white"/>
<path d="M34.4695 94.896L23.0937 94.0635C22.2612 94.004 21.7062 93.2305 21.7622 92.338C21.8177 91.981 21.9287 91.6244 22.2062 91.3864L26.9783 86.2703C27.0284 86.214 27.0886 86.1691 27.1554 86.1385C27.2221 86.1078 27.294 86.092 27.3666 86.092C27.4392 86.092 27.5111 86.1078 27.5778 86.1385C27.6445 86.1691 27.7048 86.214 27.7549 86.2703L34.8576 93.8845C35.0241 94.0635 35.0796 94.3015 34.9686 94.539C34.8576 94.777 34.6911 94.896 34.4695 94.896ZM27.3664 87.5794L22.9827 92.2789C22.8162 92.3975 22.8162 92.695 22.9827 92.814C23.0382 92.8735 23.0937 92.933 23.2047 92.933L33.0265 93.647L27.3664 87.5789V87.5794ZM45.2898 68.1261C44.9568 68.1261 44.7348 67.8286 44.7348 67.5311C44.7348 67.3526 44.7903 67.2336 44.9013 67.1146L50.284 61.344C50.3341 61.2876 50.3943 61.2427 50.4611 61.212C50.5279 61.1813 50.5998 61.1655 50.6725 61.1655C50.7451 61.1655 50.817 61.1813 50.8838 61.212C50.9506 61.2427 51.0109 61.2876 51.061 61.344L54.5566 65.0921C54.7231 65.2706 54.7786 65.4491 54.7231 65.6871C54.6676 65.8656 54.5011 66.0441 54.2791 66.1036L45.4008 68.1256H45.2898V68.1261ZM50.6725 62.5935L47.0099 66.5196L53.003 65.1516L50.6725 62.5935Z" fill="#FF6C37"/>
<path d="M54.1125 65.5086L48.0088 66.9361C47.5648 67.0551 47.1208 66.7576 47.0098 66.2816C46.9543 65.9841 47.0098 65.6866 47.2318 65.4491L50.6168 61.82L54.1125 65.5086Z" fill="white"/>
<path d="M47.8978 67.5311C47.7151 67.5331 47.5338 67.496 47.3647 67.4219C47.1955 67.3479 47.0418 67.2384 46.9126 67.0999C46.7834 66.9613 46.6812 66.7966 46.6122 66.6152C46.5431 66.4338 46.5085 66.2395 46.5103 66.0436C46.5103 65.6276 46.6768 65.2706 46.8988 64.9731L50.2839 61.344C50.334 61.2876 50.3943 61.2427 50.461 61.212C50.5278 61.1813 50.5997 61.1655 50.6724 61.1655C50.7451 61.1655 50.817 61.1813 50.8837 61.212C50.9505 61.2427 51.0108 61.2876 51.0609 61.344L54.5565 65.0921C54.723 65.2706 54.7785 65.4491 54.723 65.6871C54.6675 65.8656 54.501 66.0441 54.279 66.1036L48.1753 67.5311H47.8978ZM50.6724 62.5935L47.6758 65.8056C47.5648 65.9251 47.5648 66.0441 47.6203 66.1626C47.6758 66.2816 47.7868 66.3411 47.9533 66.3411L53.0585 65.1511L50.6724 62.5935ZM88.128 30.1716C88.017 29.8151 87.6285 29.6366 87.2955 29.7556C86.9629 29.8746 86.7964 30.2906 86.9074 30.6481C86.9074 30.7071 86.9629 30.7666 86.9629 30.8261C87.2959 31.5401 87.1849 32.4326 86.7409 33.0866C86.5189 33.3841 86.5744 33.8006 86.7964 34.0386C87.0739 34.2766 87.462 34.2171 87.684 33.9196C88.5165 32.7891 88.683 31.3616 88.128 30.1716Z" fill="#FF6C37"/>
</g>
<defs>
<clipPath id="clip0_27_52">
<rect width="111" height="119" fill="white"/>
</clipPath>
</defs>
</svg>
