<svg width="106" height="103" viewBox="0 0 106 103" fill="none" xmlns="http://www.w3.org/2000/svg">
<g clip-path="url(#clip0_29_117)">
<path d="M88.4023 0H17.5977C7.87874 0 0 7.83949 0 17.51V85.3252C0 94.9957 7.87874 102.835 17.5977 102.835H88.4023C98.1213 102.835 106 94.9957 106 85.3252V17.51C106 7.83949 98.1213 0 88.4023 0Z" fill="#330000"/>
<path d="M51.3663 61.7135H34.9404L31.5981 72.0436C31.5526 72.232 31.4425 72.3987 31.2867 72.515C31.1309 72.6313 30.9392 72.6898 30.7447 72.6805H22.425C21.9509 72.6805 21.7848 72.4209 21.9273 71.9018L36.1491 31.1476C36.2911 30.7233 36.4335 30.24 36.5756 29.6974C36.7619 28.7531 36.8571 27.7939 36.86 26.8319C36.8503 26.7646 36.8565 26.696 36.8781 26.6315C36.8997 26.567 36.9361 26.5084 36.9844 26.4603C37.0326 26.4122 37.0915 26.376 37.1563 26.3545C37.2211 26.3329 37.2901 26.3267 37.3577 26.3363H48.6641C48.9954 26.3363 49.185 26.4545 49.233 26.6906L65.3744 71.9727C65.5169 72.4448 65.3744 72.6809 64.9479 72.6805H55.7036C55.5448 72.698 55.3851 72.6574 55.2543 72.5663C55.1234 72.4751 55.0304 72.3397 54.9926 72.1853L51.3663 61.7135ZM37.5002 52.7986H48.7353L48.5751 52.2725L48.318 51.4394L48.1345 50.8544L47.8418 49.9332L47.2194 47.9939L46.6721 46.2746L45.2506 41.7962C44.8968 40.6829 44.5572 39.5652 44.232 38.4433L43.9719 37.5328L43.668 36.4562L43.2043 34.7876L43.1173 34.4733H43.0465C42.6907 36.1716 42.2575 37.8529 41.748 39.512L40.693 42.8888L40.1125 44.7543L39.5266 46.6429C39.4206 46.9841 39.3154 47.3215 39.2098 47.6548L38.8951 48.6428L38.5821 49.6077L38.2707 50.5487L37.961 51.4662C37.8583 51.7682 37.7556 52.0661 37.6534 52.3603L37.5002 52.7986ZM74.9732 33.8363C74.248 33.8653 73.5248 33.7416 72.8508 33.4734C72.1769 33.2052 71.5675 32.7984 71.0624 32.2798C70.5587 31.7386 70.1674 31.1037 69.9111 30.4116C69.6548 29.7194 69.5385 28.9837 69.5689 28.2467C69.5431 27.5171 69.6723 26.7903 69.948 26.1137C70.2236 25.4372 70.6397 24.8261 71.1688 24.3204C72.1895 23.3454 73.5488 22.7998 74.9637 22.7972L75.1152 22.7988C76.822 22.7988 78.1615 23.3056 79.1333 24.3199C79.6238 24.847 80.005 25.4651 80.2551 26.1389C80.5052 26.8127 80.6193 27.529 80.5908 28.2467C80.6206 28.9867 80.5007 29.725 80.238 30.4179C79.9754 31.1108 79.5755 31.7441 79.0621 32.2802C78.5437 32.7886 77.9284 33.1887 77.2522 33.4568C76.5761 33.725 75.8529 33.8559 75.1252 33.8417L74.9732 33.8363ZM70.0666 71.9727V38.1524C70.0666 37.7281 70.2554 37.5155 70.6355 37.5155H79.3822C79.761 37.5155 79.9507 37.7277 79.9511 38.1524V71.9727C79.9511 72.4448 79.7614 72.6809 79.3822 72.6805H70.7067C70.3026 72.6805 70.0898 72.4687 70.0687 72.0452L70.0666 71.9727Z" fill="#FF9A00"/>
</g>
<defs>
<clipPath id="clip0_29_117">
<rect width="106" height="103" fill="white"/>
</clipPath>
</defs>
</svg>
