<svg width="62" height="92" viewBox="0 0 62 92" fill="none" xmlns="http://www.w3.org/2000/svg">
<g clip-path="url(#clip0_28_82)">
<path d="M15.5 92C24.056 92 31 85.1307 31 76.6667V61.3333H15.5C6.944 61.3333 0 68.2027 0 76.6667C0 85.1307 6.944 92 15.5 92Z" fill="#0ACF83"/>
<path d="M0 46C0 37.536 6.944 30.6667 15.5 30.6667H31V61.3333H15.5C6.944 61.3333 0 54.464 0 46Z" fill="#A259FF"/>
<path d="M0 15.3333C0 6.86933 6.944 0 15.5 0H31V30.6667H15.5C6.944 30.6667 0 23.7973 0 15.3333Z" fill="#F24E1E"/>
<path d="M31 0H46.5C55.056 0 62 6.86933 62 15.3333C62 23.7973 55.056 30.6667 46.5 30.6667H31V0Z" fill="#FF7262"/>
<path d="M62 46C62 54.464 55.056 61.3333 46.5 61.3333C37.944 61.3333 31 54.464 31 46C31 37.536 37.944 30.6667 46.5 30.6667C55.056 30.6667 62 37.536 62 46Z" fill="#1ABCFE"/>
</g>
<defs>
<clipPath id="clip0_28_82">
<rect width="62" height="92" fill="white"/>
</clipPath>
</defs>
</svg>
