<svg width="101" height="100" viewBox="0 0 101 100" fill="none" xmlns="http://www.w3.org/2000/svg">
<g clip-path="url(#clip0_27_49)">
<path d="M0 0H101V100H0V0Z" fill="#F7DF1E"/>
<path d="M26.5565 83.5672L34.2854 78.9359C35.7767 81.5535 37.1331 83.7684 40.3868 83.7684C43.5056 83.7684 45.4724 82.5606 45.4724 77.8621V45.9098H54.9636V77.9949C54.9636 87.7281 49.2011 92.1586 40.7936 92.1586C33.2008 92.1586 28.7935 88.2652 26.5562 83.5664M60.1189 82.5602L67.847 78.1301C69.8816 81.4195 72.5258 83.8359 77.2033 83.8359C81.1364 83.8359 83.644 81.8891 83.644 79.2039C83.644 75.982 81.0677 74.8406 76.7287 72.9617L74.3564 71.9539C67.5085 69.0684 62.9663 65.4434 62.9663 57.791C62.9663 50.7426 68.3899 45.3723 76.8648 45.3723C82.8988 45.3723 87.2378 47.4535 90.3562 52.8906L82.9658 57.5898C81.3384 54.7035 79.5764 53.5625 76.8644 53.5625C74.0845 53.5625 72.3218 55.3078 72.3218 57.5898C72.3218 60.409 74.0845 61.5508 78.1522 63.2961L80.5249 64.3027C88.593 67.7266 93.1353 71.2168 93.1353 79.0699C93.1353 87.5285 86.4235 92.1598 77.4065 92.1598C68.5931 92.1598 62.898 87.9981 60.1185 82.5606" fill="black"/>
</g>
<defs>
<clipPath id="clip0_27_49">
<rect width="101" height="100" fill="white"/>
</clipPath>
</defs>
</svg>
