<svg width="91" height="128" viewBox="0 0 91 128" fill="none" xmlns="http://www.w3.org/2000/svg">
<g clip-path="url(#clip0_27_37)">
<path d="M90.8418 25.0915L82.5804 117.408L45.4446 127.677L8.41112 117.422L0.158203 25.0915H90.8418Z" fill="#E44D26"/>
<path d="M45.5 119.827L75.5076 111.529L82.5672 32.6407H45.5V119.827Z" fill="#F16529"/>
<path d="M29.4401 55.2889H45.5002V43.965H17.0332L17.3048 47.003L20.0952 78.2087H45.5002V66.8848H30.4777L29.4401 55.2889ZM31.9988 83.8708H20.6025L22.1928 101.651L45.448 108.09L45.5002 108.076V96.2943L45.4504 96.3074L32.8071 92.9021L31.9988 83.8708Z" fill="#EBEBEB"/>
<path d="M8.59521 0H14.3645V5.68554H19.6421V0H25.4117V17.2172H19.6425V11.4519H14.3648V17.2172H8.59557V0H8.59521ZM32.9981 5.70965H27.9199V0H43.8499V5.70965H38.7685V17.2172H32.9992V5.70965H32.9989H32.9981ZM46.378 0H52.3936L56.094 6.04968L59.7909 0H65.809V17.2172H60.0632V8.68343L56.094 14.8051H55.9945L52.0228 8.68343V17.2172H46.378V0ZM68.6801 0H74.4511V11.5264H82.5643V17.2172H68.6797V0H68.6801Z" fill="black"/>
<path d="M45.4608 78.2087H59.4403L58.1222 92.895L45.4604 96.3039V108.085L68.7341 101.651L68.9047 99.7379L71.5728 69.9256L71.8497 66.8848H45.4608V78.2087ZM45.4608 55.2613V55.2889H72.8827L73.1102 52.7438L73.6278 47.003L73.899 43.965H45.4608V55.2616V55.2613Z" fill="white"/>
</g>
<defs>
<clipPath id="clip0_27_37">
<rect width="91" height="128" fill="white"/>
</clipPath>
</defs>
</svg>
