<svg width="115" height="92" viewBox="0 0 115 92" fill="none" xmlns="http://www.w3.org/2000/svg">
<g clip-path="url(#clip0_28_91)">
<path d="M23.8859 0C17.3241 0 12.4685 5.76578 12.6859 12.0186C12.8948 18.0257 12.6235 25.8065 10.6725 32.1513C8.71574 38.5146 5.4059 42.5455 0 43.0632V48.9061C5.4059 49.4238 8.71574 53.4547 10.6725 59.8185C12.6235 66.1633 12.8948 73.9432 12.6859 79.9507C12.4685 86.2026 17.3241 91.9693 23.8868 91.9693H91.1227C97.6849 91.9693 102.539 86.2035 102.322 79.9507C102.113 73.9436 102.384 66.1633 104.335 59.8185C106.293 53.4552 109.594 49.4234 115 48.9061V43.0632C109.594 42.5455 106.293 38.5146 104.336 32.1513C102.384 25.8074 102.113 18.0261 102.322 12.0186C102.539 5.76669 97.6849 0 91.1227 0H23.885H23.8859ZM77.9664 56.6129C77.9664 65.223 71.5695 70.4445 60.9536 70.4445H42.8815C42.3647 70.4444 41.869 70.2382 41.5036 69.8712C41.1381 69.5042 40.9328 69.0066 40.9328 68.4877V23.4816C40.9328 23.2246 40.9831 22.9701 41.0811 22.7327C41.179 22.4952 41.3225 22.2794 41.5036 22.0977C41.6846 21.9159 41.8994 21.7718 42.136 21.6734C42.3725 21.575 42.626 21.5244 42.882 21.5244H60.8503C69.7021 21.5244 75.5114 26.3386 75.5114 33.7293C75.5114 38.9169 71.6032 43.5611 66.6245 44.3742V44.6453C73.4028 45.3916 77.9664 50.1039 77.9664 56.6129ZM58.9824 27.7276H48.6787V42.3394H57.3576C64.0662 42.3394 67.766 39.6272 67.766 34.7792C67.766 30.2364 64.5846 27.7276 58.9829 27.7276H58.9824ZM48.6787 48.1372V64.2394H59.362C66.3465 64.2394 70.0471 61.4258 70.0471 56.1376C70.0471 50.8485 66.2436 48.1363 58.9128 48.1363H48.6787V48.1372Z" fill="#7E13F8"/>
</g>
<defs>
<clipPath id="clip0_28_91">
<rect width="115" height="92" fill="white"/>
</clipPath>
</defs>
</svg>
