<svg width="138" height="138" viewBox="0 0 138 138" fill="none" xmlns="http://www.w3.org/2000/svg">
<path d="M108.968 43.6885V82.2883H117.381V72.5708L126.638 82.2883H138V81.8283L125.793 69.4485L137.304 58.834V58.4315H126.213L117.375 67.0335V43.6885H108.968ZM92.1208 57.546C88.3604 57.4406 84.6962 58.7427 81.8455 61.1973C80.568 62.3102 79.5456 63.6856 78.848 65.2297C78.1505 66.7737 77.7941 68.45 77.8033 70.1443C77.7917 74.4568 79.5915 77.5445 81.8282 79.5915C84.8528 82.34 88.849 83.191 91.9885 83.1738C95.818 83.1738 99.6935 82.0525 102.367 79.6088C105.363 76.8315 106.467 73.692 106.467 70.3685C106.467 66.171 104.685 63.1983 102.384 61.1513C99.2048 58.42 95.473 57.5403 92.1208 57.546ZM40.0143 57.7703C33.1833 57.7415 27.9393 63.388 27.9163 70.7078C27.8932 78.1598 33.1372 82.8288 39.6003 82.7598C43.4183 82.7713 45.2525 81.3568 47.1212 79.649V86.5088H39.2437L33.3213 93.1673V94.3173H55.545V58.4373H47.1212V60.9385C44.9305 58.5925 42.6823 57.822 40.0143 57.7703ZM12.3855 58.4028L8.41225 62.9223V58.489H0V82.3515H8.41225V66.2573C11.5575 66.2688 14.2945 66.2458 16.9797 66.24V82.3515H25.4035V67.4303C25.3805 64.285 24.8285 62.721 23.6383 61.3295C22.3196 59.7234 20.442 58.6758 18.3827 58.397L12.3855 58.4028ZM59.041 58.4315V82.294H67.482L67.4935 66.3148H73.6173L80.3102 58.7593V58.4315H71.1217L67.4705 62.5428V58.4315H59.041ZM42.1015 64.8428C44.9995 64.8428 47.6215 67.3958 47.5525 70.2938C47.536 71.7327 46.9559 73.1079 45.9367 74.1238C44.9175 75.1398 43.5405 75.7156 42.1015 75.7275C39.0942 75.7275 36.7482 73.4103 36.6562 70.2938C36.6447 67.3038 39.2035 64.8888 42.1015 64.8428ZM92.1437 64.8485C95.1625 64.8485 97.5488 67.344 97.5717 70.311C97.4165 73.439 95.1567 75.7735 92.1437 75.7735C89.1307 75.7735 86.7732 73.3758 86.6813 70.311C86.6888 68.8646 87.2667 67.4796 88.2895 66.4568C89.3123 65.434 90.6973 64.8561 92.1437 64.8485Z" fill="black"/>
</svg>
