<svg width="102" height="102" viewBox="0 0 102 102" fill="none" xmlns="http://www.w3.org/2000/svg">
<path d="M91.443 6.375H10.557C8.24735 6.375 6.375 8.24735 6.375 10.557V91.443C6.375 93.7527 8.24735 95.625 10.557 95.625H91.443C93.7527 95.625 95.625 93.7527 95.625 91.443V10.557C95.625 8.24735 93.7527 6.375 91.443 6.375Z" fill="#3178C6"/>
<path fill-rule="evenodd" clip-rule="evenodd" d="M58.1558 75.7318V85.5111C59.9326 86.388 61.8262 87.0053 63.7786 87.3439C66.0347 87.7604 68.3247 87.9653 70.6189 87.9559C72.8549 87.9665 75.0858 87.7411 77.2744 87.2833C79.2395 86.8862 81.1143 86.1298 82.8048 85.0521C84.3741 84.039 85.6675 82.6525 86.5692 81.0167C88.184 77.6294 88.3971 73.7418 87.1621 70.1983C86.6409 68.8732 85.8644 67.6635 84.8766 66.6379C83.8164 65.5473 82.6121 64.6068 81.2971 63.8424C79.7831 62.9557 78.2101 62.174 76.5891 61.5028C75.3141 60.9737 74.1666 60.4594 73.1466 59.9601C72.2407 59.5263 71.3737 59.0155 70.5552 58.4332C69.9141 57.9838 69.3574 57.4249 68.9104 56.7821C68.5243 56.1985 68.3232 55.512 68.3335 54.8122C68.325 54.1682 68.5044 53.5358 68.8499 52.9922C69.2251 52.4233 69.7255 51.9479 70.3129 51.6024C71.031 51.1797 71.8123 50.8751 72.6271 50.7004C73.6273 50.4782 74.6497 50.3712 75.6743 50.3816C76.536 50.3846 77.3965 50.4464 78.2498 50.5665C79.1713 50.6911 80.083 50.8796 80.9783 51.1307C81.889 51.3831 82.7797 51.7027 83.6431 52.0869C84.4808 52.4604 85.2822 52.9107 86.0369 53.4321V44.3062C84.4658 43.7118 82.8365 43.2845 81.1759 43.0312C79.1707 42.7395 77.146 42.602 75.1197 42.6201C72.9048 42.6081 70.6963 42.8596 68.5407 43.3691C66.5923 43.8143 64.7397 44.6057 63.0709 45.7056C61.5208 46.7382 60.2408 48.1275 59.3384 49.7569C58.382 51.5663 57.9088 53.5919 57.9646 55.6378C57.8939 58.3433 58.7851 60.9862 60.4795 63.0966C62.5583 65.4364 65.1797 67.2304 68.1136 68.3209C69.4523 68.8734 70.7008 69.4142 71.8589 69.9433C72.9038 70.4083 73.9081 70.9595 74.8615 71.5912C75.6305 72.0915 76.3058 72.7226 76.8569 73.4559C77.3414 74.1211 77.5985 74.9248 77.59 75.7477C77.5944 76.3644 77.4361 76.9713 77.131 77.5072C76.792 78.0831 76.3156 78.5661 75.7444 78.9129C75.0297 79.3487 74.2477 79.6632 73.4303 79.8437C72.3655 80.0817 71.2764 80.1941 70.1854 80.1784C68.0444 80.1744 65.9205 79.7969 63.9092 79.0627C61.8081 78.3045 59.8596 77.1764 58.1558 75.7318ZM41.7274 51.3857H54.4774V43.3309H18.9272V51.3857H31.6199V87.2578H41.7274V51.3857Z" fill="white"/>
</svg>
